<svg width="1100" height="280" viewBox="0 0 1100 280" fill="none" xmlns="http://www.w3.org/2000/svg" role="img" aria-labelledby="title desc">
  <title id="title">Oxford Expert Limited horizontal logo with Carfax Tower</title>
  <desc id="desc">Brand lockup featuring a stylised Carfax Tower icon and company name.</desc>
  <defs>
    <linearGradient id="bg" x1="20" y1="22" x2="180" y2="194" gradientUnits="userSpaceOnUse">
      <stop stop-color="#0F8A8D"/>
      <stop offset="1" stop-color="#11496B"/>
    </linearGradient>
    <linearGradient id="orbit" x1="24" y1="32" x2="170" y2="164" gradientUnits="userSpaceOnUse">
      <stop stop-color="#F2C067"/>
      <stop offset="1" stop-color="#F8E7BE"/>
    </linearGradient>
  </defs>

  <rect x="20" y="38" width="172" height="172" rx="36" fill="url(#bg)"/>

  <ellipse cx="106" cy="130" rx="62" ry="26" stroke="url(#orbit)" stroke-width="3" opacity="0.9"/>
  <ellipse cx="106" cy="130" rx="62" ry="26" transform="rotate(-37 106 130)" stroke="url(#orbit)" stroke-width="3" opacity="0.62"/>

  <path d="M59 170H153" stroke="#E8F7F8" stroke-opacity="0.52" stroke-width="3"/>

  <path d="M86 104H126V166H86V104Z" fill="#F9F7F2"/>
  <path d="M82 104H130V98H82V104Z" fill="#F9F7F2"/>
  <rect x="92" y="82" width="28" height="16" fill="#F9F7F2"/>
  <rect x="97" y="70" width="18" height="12" fill="#F9F7F2"/>
  <path d="M106 54L118 70H94L106 54Z" fill="#F2C067"/>

  <rect x="84" y="95" width="2.5" height="5" fill="#11496B"/>
  <rect x="92" y="95" width="2.5" height="5" fill="#11496B"/>
  <rect x="100" y="95" width="2.5" height="5" fill="#11496B"/>
  <rect x="108" y="95" width="2.5" height="5" fill="#11496B"/>
  <rect x="116" y="95" width="2.5" height="5" fill="#11496B"/>
  <rect x="124" y="95" width="2.5" height="5" fill="#11496B"/>

  <circle cx="106" cy="120" r="8" fill="#11496B"/>
  <circle cx="106" cy="120" r="5.4" fill="#F9F7F2"/>
  <path d="M106 120L106 115.8" stroke="#11496B" stroke-width="1.6" stroke-linecap="round"/>
  <path d="M106 120L109.2 122" stroke="#11496B" stroke-width="1.6" stroke-linecap="round"/>

  <path d="M98.8 166V152.5C98.8 149.3 101.2 146.8 104.2 146.8H107.8C110.8 146.8 113.2 149.3 113.2 152.5V166H98.8Z" fill="#11496B"/>

  <circle cx="140" cy="88" r="4.5" fill="#F2C067"/>

  <text x="226" y="132" fill="#12263A" font-family="'Space Grotesk', 'Arial', sans-serif" font-size="62" font-weight="700" letter-spacing="-1.2">Oxford Expert Limited</text>
  <text x="226" y="182" fill="#0F8A8D" font-family="'Manrope', 'Arial', sans-serif" font-size="27" font-weight="800" letter-spacing="1.8">CARFAX TOWER INSPIRED. BUILT IN OXFORD. CONNECTED GLOBALLY.</text>
</svg>
