<svg width="128" height="128" viewBox="0 0 128 128" fill="none" xmlns="http://www.w3.org/2000/svg" role="img" aria-labelledby="title desc">
  <title id="title">Oxford Expert Limited Carfax Tower logo mark</title>
  <desc id="desc">Stylised Carfax Tower with scientific orbit lines in a rounded square.</desc>
  <defs>
    <linearGradient id="bg" x1="12" y1="10" x2="116" y2="118" gradientUnits="userSpaceOnUse">
      <stop stop-color="#0F8A8D"/>
      <stop offset="1" stop-color="#11496B"/>
    </linearGradient>
    <linearGradient id="orbit" x1="18" y1="24" x2="110" y2="102" gradientUnits="userSpaceOnUse">
      <stop stop-color="#F2C067"/>
      <stop offset="1" stop-color="#F8E7BE"/>
    </linearGradient>
  </defs>

  <rect x="8" y="8" width="112" height="112" rx="24" fill="url(#bg)"/>

  <ellipse cx="64" cy="68" rx="41" ry="18" stroke="url(#orbit)" stroke-width="2.4" opacity="0.88"/>
  <ellipse cx="64" cy="68" rx="41" ry="18" transform="rotate(-38 64 68)" stroke="url(#orbit)" stroke-width="2.4" opacity="0.62"/>

  <path d="M33 96H95" stroke="#E8F7F8" stroke-opacity="0.5" stroke-width="2"/>

  <path d="M50 54H78V94H50V54Z" fill="#F9F7F2"/>
  <path d="M47 54H81V50H47V54Z" fill="#F9F7F2"/>
  <rect x="54" y="40" width="20" height="10" fill="#F9F7F2"/>
  <rect x="58" y="32" width="12" height="8" fill="#F9F7F2"/>
  <path d="M64 21L72 32H56L64 21Z" fill="#F2C067"/>

  <rect x="49" y="48" width="2" height="4" fill="#11496B"/>
  <rect x="55" y="48" width="2" height="4" fill="#11496B"/>
  <rect x="61" y="48" width="2" height="4" fill="#11496B"/>
  <rect x="67" y="48" width="2" height="4" fill="#11496B"/>
  <rect x="73" y="48" width="2" height="4" fill="#11496B"/>
  <rect x="79" y="48" width="2" height="4" fill="#11496B"/>

  <circle cx="64" cy="64" r="6.2" fill="#11496B"/>
  <circle cx="64" cy="64" r="4.3" fill="#F9F7F2"/>
  <path d="M64 64L64 61" stroke="#11496B" stroke-width="1.4" stroke-linecap="round"/>
  <path d="M64 64L66.4 65.4" stroke="#11496B" stroke-width="1.4" stroke-linecap="round"/>

  <path d="M59 94V84C59 81.6 60.8 79.7 63 79.7H65C67.2 79.7 69 81.6 69 84V94H59Z" fill="#11496B"/>

  <circle cx="86" cy="44" r="3" fill="#F2C067"/>
</svg>
